<svg width="374" height="374" xmlns="http://www.w3.org/2000/svg" xmlns:xlink="http://www.w3.org/1999/xlink" xml:space="preserve" overflow="hidden"><defs><clipPath id="clip0"><rect x="181" y="1010" width="374" height="374"/></clipPath></defs><g clip-path="url(#clip0)" transform="translate(-181 -1010)"><path d="M236.998 1221.97C234.876 1221.97 233.664 1224.39 235.786 1226.51 270.94 1258.33 317.611 1277.43 369.131 1277.43 406.103 1277.43 448.834 1265.91 478.231 1244.09 483.383 1240.45 479.14 1235 473.988 1237.12 440.955 1251.06 404.891 1258.03 372.161 1258.03 323.672 1258.03 276.698 1244.69 238.816 1222.57 238.21 1222.27 237.604 1221.97 236.998 1221.97ZM485.504 1216.81C475.806 1216.81 464.29 1218.94 455.501 1225 452.774 1226.82 453.38 1229.24 456.107 1228.94 465.502 1227.72 486.716 1225.3 490.656 1230.15 494.293 1235 486.413 1255 482.777 1263.79 481.867 1266.52 483.989 1267.42 486.716 1265.61 502.475 1252.27 506.718 1224.69 503.384 1220.45 501.869 1218.63 494.596 1216.81 485.504 1216.81ZM438.227 1142.26C436.712 1142.26 436.106 1142.87 436.106 1144.38L436.106 1194.69C436.106 1196.21 436.712 1196.81 438.227 1196.81L444.591 1196.81C446.107 1196.81 446.713 1196.21 446.713 1194.69L446.713 1144.38C446.713 1143.17 446.107 1142.26 444.591 1142.26ZM333.067 1142.26C331.551 1142.26 330.945 1142.87 330.945 1144.38L330.945 1181.96C330.945 1187.11 332.157 1191.36 334.885 1194.08 337.612 1196.81 341.552 1198.33 346.704 1198.33 353.674 1198.33 360.645 1195.9 367.312 1191.05L367.918 1194.69C367.918 1195.6 368.221 1195.9 368.827 1196.21 369.13 1196.51 369.736 1196.51 370.646 1196.51L375.191 1196.51C376.707 1196.51 377.313 1195.9 377.313 1194.39L377.313 1144.38C377.313 1142.87 376.707 1142.26 375.191 1142.26L368.827 1142.26C367.009 1142.26 366.403 1143.17 366.403 1144.38L366.403 1184.69C361.251 1188.02 356.099 1189.84 350.947 1189.84 347.613 1189.84 345.189 1188.93 343.673 1187.11 342.158 1185.3 341.552 1182.57 341.552 1178.63L341.552 1144.38C341.552 1142.87 340.946 1142.26 339.431 1142.26ZM484.595 1141.05C476.109 1141.05 469.745 1143.47 464.896 1148.63 460.35 1153.47 457.926 1160.75 457.926 1169.84 457.926 1178.93 460.047 1185.9 464.593 1190.75 469.139 1195.6 475.503 1198.02 483.989 1198.02 488.535 1198.02 492.777 1197.42 496.111 1195.9 497.02 1195.6 497.626 1195.3 497.929 1194.69 498.232 1194.39 498.232 1193.48 498.232 1192.57L498.232 1189.54C498.232 1188.02 497.626 1187.42 496.717 1187.42 496.414 1187.42 495.808 1187.42 495.202 1187.72 491.868 1188.63 488.535 1189.24 485.504 1189.24 479.746 1189.24 475.503 1187.72 472.776 1184.69 470.048 1181.66 468.836 1176.81 468.836 1170.45L468.836 1168.93C469.139 1162.26 470.351 1157.41 473.079 1154.38 475.806 1151.35 480.049 1149.84 486.11 1149.84 489.141 1149.84 492.171 1150.14 494.899 1151.05 495.808 1151.35 496.111 1151.35 496.717 1151.35 497.626 1151.35 498.232 1150.75 498.232 1149.23L498.232 1146.2C498.232 1145.29 497.929 1144.38 497.626 1144.08 497.323 1143.78 496.717 1143.17 496.111 1142.87 492.171 1141.96 488.232 1141.05 484.595 1141.05ZM407.921 1140.75C402.163 1140.75 397.315 1142.26 393.678 1144.99 390.041 1147.72 388.223 1151.66 388.223 1156.2 388.223 1163.17 392.162 1168.33 400.042 1171.36L409.134 1174.69C412.164 1175.9 413.982 1176.81 415.195 1178.02 416.407 1179.23 416.71 1180.45 416.71 1182.27 416.71 1184.69 415.801 1186.81 413.982 1188.02 412.164 1189.24 409.437 1190.15 406.103 1190.15 400.951 1190.15 396.102 1189.54 391.254 1188.02 390.041 1187.72 389.132 1187.42 388.526 1187.42 387.617 1187.42 387.314 1188.02 387.314 1189.24L387.314 1192.27C387.314 1193.18 387.617 1193.78 387.92 1194.39 388.223 1194.69 388.829 1195.3 389.738 1195.6 394.587 1197.72 400.042 1198.63 406.103 1198.63 412.467 1198.63 417.316 1197.12 421.256 1194.09 425.196 1191.05 427.014 1187.11 427.014 1181.96 427.014 1178.33 426.105 1175.6 424.287 1173.17 422.468 1171.05 419.438 1168.93 415.195 1167.42L406.71 1164.08C403.376 1162.87 400.951 1161.66 400.042 1160.45 398.83 1159.23 398.224 1158.02 398.224 1155.9 398.224 1151.35 401.557 1148.93 408.528 1148.93 412.467 1148.93 416.407 1149.54 420.044 1150.75 421.256 1151.05 422.165 1151.35 422.468 1151.35 423.377 1151.35 423.983 1150.75 423.983 1149.54L423.983 1146.51C423.983 1145.6 423.681 1144.99 423.377 1144.38 423.075 1143.78 422.468 1143.47 421.559 1143.17 417.013 1141.66 412.467 1140.75 407.921 1140.75ZM267 1140.75C260.333 1140.75 253.666 1143.17 246.998 1147.72L246.392 1144.38C246.392 1143.47 246.09 1143.17 245.483 1142.87 245.18 1142.57 244.574 1142.57 243.968 1142.57L239.119 1142.57C237.604 1142.57 236.998 1143.17 236.998 1144.69L236.998 1194.99C236.998 1196.51 237.604 1197.12 239.119 1197.12L245.483 1197.12C246.998 1197.12 247.605 1196.51 247.605 1194.99L247.605 1154.08C252.757 1151.05 257.909 1149.23 263.364 1149.23 266.394 1149.23 268.516 1150.14 269.728 1151.96 270.94 1153.78 271.849 1156.2 271.849 1159.84L271.849 1194.69C271.849 1196.21 272.455 1196.81 273.971 1196.81L280.335 1196.81C281.85 1196.81 282.456 1196.21 282.456 1194.69L282.456 1157.41 282.456 1155.6C282.456 1154.99 282.456 1154.38 282.456 1154.08 287.911 1150.75 293.063 1149.23 298.215 1149.23 301.246 1149.23 303.367 1150.14 304.579 1151.96 305.792 1153.78 306.701 1156.2 306.701 1159.84L306.701 1194.69C306.701 1196.21 307.307 1196.81 308.822 1196.81L315.186 1196.81C316.702 1196.81 317.308 1196.21 317.308 1194.69L317.308 1156.81C317.308 1151.66 316.095 1147.72 313.368 1144.99 310.64 1142.26 307.004 1140.75 301.852 1140.75 294.881 1140.75 287.608 1143.17 280.638 1148.32 278.213 1143.17 273.668 1140.75 267 1140.75ZM441.258 1119.84C439.136 1119.84 437.621 1120.44 436.409 1121.65 435.196 1122.87 434.59 1124.38 434.59 1126.2 434.59 1128.02 435.196 1129.84 436.409 1130.75 437.621 1131.96 439.136 1132.56 441.258 1132.56 443.379 1132.56 444.894 1131.96 446.107 1130.75 447.319 1129.53 447.925 1128.02 447.925 1126.2 447.925 1124.38 447.622 1122.56 446.41 1121.65 445.197 1120.44 443.379 1119.84 441.258 1119.84ZM368 1010C471.277 1010 555 1093.72 555 1197 555 1300.28 471.277 1384 368 1384 264.723 1384 181 1300.28 181 1197 181 1093.72 264.723 1010 368 1010Z" fill="#FFFFFF" fill-rule="evenodd"/></g></svg>