<svg width="374" height="374" xmlns="http://www.w3.org/2000/svg" xmlns:xlink="http://www.w3.org/1999/xlink" xml:space="preserve" overflow="hidden"><defs><clipPath id="clip0"><rect x="181" y="581" width="374" height="374"/></clipPath></defs><g clip-path="url(#clip0)" transform="translate(-181 -581)"><path d="M434.88 657.294C434.092 657.367 427.099 658.606 426.258 658.778L329.459 678.309 329.423 678.318C326.899 678.852 324.918 679.748 323.389 681.032 321.544 682.579 320.521 684.769 320.132 687.32 320.051 687.863 319.915 688.966 319.915 690.595 319.915 690.595 319.915 789.492 319.915 811.746 319.915 814.578 319.689 817.328 317.771 819.671 315.853 822.014 313.483 822.72 310.706 823.281 308.598 823.706 306.49 824.132 304.382 824.557 296.385 826.167 291.183 827.262 286.47 829.089 281.965 830.835 278.59 833.061 275.903 835.883 270.575 841.465 268.413 849.037 269.154 856.129 269.788 862.181 272.511 867.971 277.188 872.25 280.345 875.145 284.29 877.344 288.939 878.275 293.762 879.243 298.9 878.909 306.408 877.389 310.407 876.584 314.152 875.326 317.717 873.219 321.245 871.137 324.267 868.36 326.628 864.977 328.998 861.584 330.527 857.812 331.368 853.804 332.236 849.67 332.445 845.934 332.445 841.808L332.445 736.732C332.445 731.105 334.037 729.622 338.578 728.518 338.578 728.518 419.039 712.288 422.793 711.556 428.031 710.551 430.501 712.044 430.501 717.535L430.501 789.266C430.501 792.106 430.474 794.983 428.538 797.335 426.62 799.678 424.25 800.384 421.472 800.945 419.364 801.37 417.257 801.796 415.149 802.221 407.151 803.831 401.949 804.925 397.236 806.753 392.731 808.499 389.357 810.725 386.67 813.547 381.342 819.129 378.989 826.701 379.732 833.793 380.365 839.845 383.278 845.635 387.954 849.914 391.112 852.809 395.056 854.944 399.706 855.885 404.528 856.853 409.667 856.509 417.175 854.999 421.174 854.193 424.919 852.99 428.483 850.882 432.012 848.802 435.033 846.024 437.394 842.641 439.764 839.248 441.293 835.476 442.135 831.468 443.003 827.334 443.039 823.598 443.039 819.472L443.039 665.852C443.057 660.28 440.117 656.842 434.88 657.294ZM368 581C471.277 581 555 664.723 555 768 555 871.277 471.277 955 368 955 264.723 955 181 871.277 181 768 181 664.723 264.723 581 368 581Z" fill="#FFFFFF" fill-rule="evenodd"/></g></svg>