<svg width="374" height="374" xmlns="http://www.w3.org/2000/svg" xmlns:xlink="http://www.w3.org/1999/xlink" xml:space="preserve" overflow="hidden"><defs><clipPath id="clip0"><rect x="181" y="152" width="374" height="374"/></clipPath></defs><g clip-path="url(#clip0)" transform="translate(-181 -152)"><path d="M361.127 376.023C330.899 373.403 299.682 376.514 268.805 383.338 263.149 384.544 258.55 388.239 258.55 396.005 258.55 402.113 263.149 407.919 270.464 407.919 272.65 407.919 276.496 406.712 279.437 405.959 333.501 394.874 388.243 396.08 435.295 424.433 438.236 426.166 440.196 427.147 443.363 427.147 449.471 427.147 454.825 422.397 454.825 415.535 454.825 408.673 452.11 406.034 447.51 403.093 420.592 386.994 391.354 378.644 361.127 376.023ZM336.291 313.816C304.923 313.816 283.508 318.189 262.546 324.07 254.78 326.257 250.859 331.611 250.859 339.679 250.859 347.747 257.419 354.307 265.487 354.307 268.88 354.307 270.841 353.327 274.46 352.347 336.969 335.381 407.245 346.616 454.372 374.516 457.087 375.948 459.726 377.682 463.647 377.682 471.866 377.682 478.2 371.122 478.275 362.979 478.275 356.419 475.862 351.744 469.754 348.124 432.505 325.956 385.228 313.816 336.291 313.816ZM339.91 249.572C307.562 249.572 277.853 253.267 251.311 261.033 244.525 262.994 238.191 268.8 238.191 279.055 238.191 289.083 245.807 296.85 255.76 296.85 259.38 296.85 262.772 295.643 265.487 294.889 327.62 277.547 423.607 285.238 477.295 317.284 480.688 319.245 483.101 320.225 487.022 320.225 496.221 320.225 504.515 312.911 504.515 302.656 504.515 293.683 500.67 289.008 494.788 285.615 452.638 261.033 394.954 249.572 339.91 249.572ZM368 152C471.277 152 555 235.723 555 339 555 442.277 471.277 526 368 526 264.723 526 181 442.277 181 339 181 235.723 264.723 152 368 152Z" fill="#FFFFFF" fill-rule="evenodd"/></g></svg>