<svg width="374" height="374" xmlns="http://www.w3.org/2000/svg" xmlns:xlink="http://www.w3.org/1999/xlink" xml:space="preserve" overflow="hidden"><defs><clipPath id="clip0"><rect x="181" y="1439" width="374" height="374"/></clipPath></defs><g clip-path="url(#clip0)" transform="translate(-181 -1439)"><path d="M347.16 1594.78 401.25 1626 347.16 1657.23ZM368 1553.13C368 1553.13 302.89 1553.13 286.66 1557.48 277.696 1559.88 270.652 1566.92 268.253 1575.89 263.9 1592.12 263.9 1626 263.9 1626 263.9 1626 263.9 1659.88 268.253 1676.11 270.652 1685.08 277.696 1692.12 286.66 1694.52 302.89 1698.87 368 1698.87 368 1698.87 368 1698.87 433.11 1698.87 449.34 1694.52 458.303 1692.12 465.348 1685.08 467.747 1676.11 472.101 1659.88 472.101 1626 472.101 1626 472.101 1626 472.083 1592.12 467.747 1575.89 465.348 1566.92 458.303 1559.88 449.34 1557.48 433.11 1553.13 368 1553.13 368 1553.13ZM368 1439C471.277 1439 555 1522.72 555 1626 555 1729.28 471.277 1813 368 1813 264.723 1813 181 1729.28 181 1626 181 1522.72 264.723 1439 368 1439Z" fill="#FFFFFF" fill-rule="evenodd"/></g></svg>