<svg width="374" height="375" xmlns="http://www.w3.org/2000/svg" xmlns:xlink="http://www.w3.org/1999/xlink" xml:space="preserve" overflow="hidden"><defs><clipPath id="clip0"><rect x="181" y="1868" width="374" height="375"/></clipPath></defs><g clip-path="url(#clip0)" transform="translate(-181 -1868)"><path d="M334 2006.49 334 2104.51 416.875 2053.37ZM368 1966.01C417.087 1966.01 457.25 2006.07 457.25 2055.5 457.25 2104.93 417.3 2144.99 368 2144.99 318.7 2144.99 278.75 2104.93 278.75 2055.5 278.75 2006.07 318.912 1966.01 368 1966.01ZM368 1957.49C314.025 1957.49 270.25 2001.38 270.25 2055.5 270.25 2109.62 314.025 2153.51 368 2153.51 421.975 2153.51 465.75 2109.62 465.75 2055.5 465.75 2001.38 421.975 1957.49 368 1957.49ZM368 1868C471.277 1868 555 1951.95 555 2055.5 555 2159.05 471.277 2243 368 2243 264.723 2243 181 2159.05 181 2055.5 181 1951.95 264.723 1868 368 1868Z" fill="#FFFFFF" fill-rule="evenodd"/></g></svg>